<svg width="48" height="48" viewBox="0 0 48 48" fill="none" xmlns="http://www.w3.org/2000/svg">
<g id="Frame" clip-path="url(#clip0_2237_341)">
<path id="Vector" d="M14 22C14 20.9391 14.4214 19.9217 15.1716 19.1716C15.9217 18.4214 16.9391 18 18 18H38C39.0609 18 40.0783 18.4214 40.8284 19.1716C41.5786 19.9217 42 20.9391 42 22V34C42 35.0609 41.5786 36.0783 40.8284 36.8284C40.0783 37.5786 39.0609 38 38 38H18C16.9391 38 15.9217 37.5786 15.1716 36.8284C14.4214 36.0783 14 35.0609 14 34V22Z" stroke="#2C6787" stroke-width="1.5" stroke-linecap="round" stroke-linejoin="round"/>
<path id="Vector_2" d="M24 28C24 29.0609 24.4214 30.0783 25.1716 30.8284C25.9217 31.5786 26.9391 32 28 32C29.0609 32 30.0783 31.5786 30.8284 30.8284C31.5786 30.0783 32 29.0609 32 28C32 26.9391 31.5786 25.9217 30.8284 25.1716C30.0783 24.4214 29.0609 24 28 24C26.9391 24 25.9217 24.4214 25.1716 25.1716C24.4214 25.9217 24 26.9391 24 28Z" stroke="#2C6787" stroke-width="1.5" stroke-linecap="round" stroke-linejoin="round"/>
<path id="Vector_3" d="M34 18V14C34 12.9391 33.5786 11.9217 32.8284 11.1716C32.0783 10.4214 31.0609 10 30 10H10C8.93913 10 7.92172 10.4214 7.17157 11.1716C6.42143 11.9217 6 12.9391 6 14V26C6 27.0609 6.42143 28.0783 7.17157 28.8284C7.92172 29.5786 8.93913 30 10 30H14" stroke="#2C6787" stroke-width="1.5" stroke-linecap="round" stroke-linejoin="round"/>
</g>
<defs>
<clipPath id="clip0_2237_341">
<rect width="48" height="48" fill="white"/>
</clipPath>
</defs>
</svg>
