<svg width="48" height="48" viewBox="0 0 48 48" fill="none" xmlns="http://www.w3.org/2000/svg">
<g id="Frame" clip-path="url(#clip0_2237_337)">
<path id="Vector" d="M9.99995 14.4C9.99995 13.2331 10.4635 12.1139 11.2887 11.2887C12.1138 10.4636 13.233 10 14.3999 10H16.3999C17.5617 9.99934 18.6761 9.53921 19.4999 8.72001L20.8999 7.32001C21.3088 6.90881 21.795 6.58249 22.3304 6.35982C22.8659 6.13715 23.4401 6.02252 24.0199 6.02252C24.5998 6.02252 25.174 6.13715 25.7095 6.35982C26.2449 6.58249 26.7311 6.90881 27.1399 7.32001L28.5399 8.72001C29.3639 9.54001 30.4799 10 31.6399 10H33.6399C34.8069 10 35.9261 10.4636 36.7512 11.2887C37.5764 12.1139 38.0399 13.2331 38.0399 14.4V16.4C38.0399 17.56 38.4999 18.676 39.3199 19.5L40.7199 20.9C41.1311 21.3089 41.4575 21.795 41.6801 22.3305C41.9028 22.8659 42.0174 23.4401 42.0174 24.02C42.0174 24.5999 41.9028 25.1741 41.6801 25.7095C41.4575 26.245 41.1311 26.7311 40.7199 27.14L39.3199 28.54C38.5007 29.3638 38.0406 30.4782 38.0399 31.64V33.64C38.0399 34.807 37.5764 35.9261 36.7512 36.7513C35.9261 37.5764 34.8069 38.04 33.6399 38.04H31.6399C30.4781 38.0407 29.3638 38.5008 28.5399 39.32L27.1399 40.72C26.7311 41.1312 26.2449 41.4575 25.7095 41.6802C25.174 41.9029 24.5998 42.0175 24.0199 42.0175C23.4401 42.0175 22.8659 41.9029 22.3304 41.6802C21.795 41.4575 21.3088 41.1312 20.8999 40.72L19.4999 39.32C18.6761 38.5008 17.5617 38.0407 16.3999 38.04H14.3999C13.233 38.04 12.1138 37.5764 11.2887 36.7513C10.4635 35.9261 9.99995 34.807 9.99995 33.64V31.64C9.99928 30.4782 9.53915 29.3638 8.71995 28.54L7.31995 27.14C6.90875 26.7311 6.58243 26.245 6.35976 25.7095C6.13709 25.1741 6.02246 24.5999 6.02246 24.02C6.02246 23.4401 6.13709 22.8659 6.35976 22.3305C6.58243 21.795 6.90875 21.3089 7.31995 20.9L8.71995 19.5C9.53915 18.6762 9.99928 17.5618 9.99995 16.4V14.4Z" stroke="#2C6787" stroke-width="1.5" stroke-linecap="round" stroke-linejoin="round"/>
<path id="Vector_2" d="M18 24L22 28L30 20" stroke="#2C6787" stroke-width="1.5" stroke-linecap="round" stroke-linejoin="round"/>
</g>
<defs>
<clipPath id="clip0_2237_337">
<rect width="48" height="48" fill="white"/>
</clipPath>
</defs>
</svg>
